<mxfile host="app.diagrams.net" modified="2024-02-14T15:09:35.448Z" agent="Mozilla/5.0 (Macintosh; Intel Mac OS X 10_15_7) AppleWebKit/605.1.15 (KHTML, like Gecko) Version/17.1.2 Safari/605.1.15" etag="30fXyh76iSmr81MjLO0A" version="23.1.4" type="github">
  <diagram name="第 1 页" id="3mq1tLA1kfnGCzrixPqP">
    <mxGraphModel dx="666" dy="1018" grid="1" gridSize="10" guides="1" tooltips="1" connect="1" arrows="1" fold="1" page="1" pageScale="1" pageWidth="827" pageHeight="1169" math="0" shadow="0">
      <root>
        <mxCell id="0" />
        <mxCell id="1" parent="0" />
        <mxCell id="AX7pE2waT5FvwZgOrMOG-1" value="Rust内存" style="rounded=1;whiteSpace=wrap;html=1;absoluteArcSize=1;verticalAlign=top;" vertex="1" parent="1">
          <mxGeometry x="40" y="80" width="300" height="200" as="geometry" />
        </mxCell>
        <mxCell id="AX7pE2waT5FvwZgOrMOG-2" value="Rust字符串" style="rounded=0;whiteSpace=wrap;html=1;verticalAlign=top;" vertex="1" parent="1">
          <mxGeometry x="50" y="130" width="120" height="140" as="geometry" />
        </mxCell>
        <mxCell id="AX7pE2waT5FvwZgOrMOG-5" style="edgeStyle=orthogonalEdgeStyle;rounded=0;orthogonalLoop=1;jettySize=auto;html=1;exitX=0.5;exitY=1;exitDx=0;exitDy=0;entryX=0.5;entryY=0;entryDx=0;entryDy=0;startArrow=classic;startFill=1;" edge="1" parent="1" source="AX7pE2waT5FvwZgOrMOG-3" target="AX7pE2waT5FvwZgOrMOG-4">
          <mxGeometry relative="1" as="geometry" />
        </mxCell>
        <mxCell id="AX7pE2waT5FvwZgOrMOG-3" value="String" style="rounded=0;whiteSpace=wrap;html=1;" vertex="1" parent="1">
          <mxGeometry x="60" y="170" width="100" height="30" as="geometry" />
        </mxCell>
        <mxCell id="AX7pE2waT5FvwZgOrMOG-4" value="&amp;amp;str" style="rounded=0;whiteSpace=wrap;html=1;" vertex="1" parent="1">
          <mxGeometry x="60" y="230" width="100" height="30" as="geometry" />
        </mxCell>
        <mxCell id="AX7pE2waT5FvwZgOrMOG-6" value="C字符串" style="rounded=0;whiteSpace=wrap;html=1;verticalAlign=top;" vertex="1" parent="1">
          <mxGeometry x="210" y="130" width="120" height="140" as="geometry" />
        </mxCell>
        <mxCell id="AX7pE2waT5FvwZgOrMOG-7" style="edgeStyle=orthogonalEdgeStyle;rounded=0;orthogonalLoop=1;jettySize=auto;html=1;exitX=0.5;exitY=1;exitDx=0;exitDy=0;entryX=0.5;entryY=0;entryDx=0;entryDy=0;startArrow=classic;startFill=1;" edge="1" parent="1" source="AX7pE2waT5FvwZgOrMOG-8" target="AX7pE2waT5FvwZgOrMOG-9">
          <mxGeometry relative="1" as="geometry" />
        </mxCell>
        <mxCell id="AX7pE2waT5FvwZgOrMOG-8" value="CString" style="rounded=0;whiteSpace=wrap;html=1;" vertex="1" parent="1">
          <mxGeometry x="220" y="170" width="100" height="30" as="geometry" />
        </mxCell>
        <mxCell id="AX7pE2waT5FvwZgOrMOG-9" value="&amp;amp;CStr" style="rounded=0;whiteSpace=wrap;html=1;" vertex="1" parent="1">
          <mxGeometry x="220" y="230" width="100" height="30" as="geometry" />
        </mxCell>
        <mxCell id="AX7pE2waT5FvwZgOrMOG-10" value="C内存" style="rounded=1;whiteSpace=wrap;html=1;absoluteArcSize=1;verticalAlign=top;" vertex="1" parent="1">
          <mxGeometry x="400" y="80" width="250" height="140" as="geometry" />
        </mxCell>
        <mxCell id="AX7pE2waT5FvwZgOrMOG-11" value="libc::malloc(_: unsize) -&amp;gt; libc::c_void" style="rounded=0;whiteSpace=wrap;html=1;" vertex="1" parent="1">
          <mxGeometry x="412" y="120" width="226" height="30" as="geometry" />
        </mxCell>
      </root>
    </mxGraphModel>
  </diagram>
</mxfile>
